<svg width="20" height="20" viewBox="0 0 10 10" fill="none" xmlns="http://www.w3.org/2000/svg">
<g id="Place" clip-path="url(#clip0_13_937)">
<path id="Vector" d="M5.33333 5.16667C4.875 5.16667 4.5 4.79167 4.5 4.33333C4.5 3.875 4.875 3.5 5.33333 3.5C5.79167 3.5 6.16667 3.875 6.16667 4.33333C6.16667 4.79167 5.79167 5.16667 5.33333 5.16667ZM7.83333 4.41667C7.83333 2.90417 6.72917 1.83333 5.33333 1.83333C3.9375 1.83333 2.83333 2.90417 2.83333 4.41667C2.83333 5.39167 3.64583 6.68333 5.33333 8.225C7.02083 6.68333 7.83333 5.39167 7.83333 4.41667ZM5.33333 1C7.08333 1 8.66667 2.34167 8.66667 4.41667C8.66667 5.8 7.55417 7.4375 5.33333 9.33333C3.1125 7.4375 2 5.8 2 4.41667C2 2.34167 3.58333 1 5.33333 1Z" fill="#B3898B"/>
</g>
<defs>
<clipPath id="clip0_13_937">
<rect width="10" height="10" fill="white"/>
</clipPath>
</defs>
</svg>
