<svg width="20" height="20" viewBox="0 0 10 10" fill="none" xmlns="http://www.w3.org/2000/svg">
<g id="Timelapse" clip-path="url(#clip0_13_934)">
<path id="Vector" d="M6.93333 3.4C6.44583 2.9125 5.80833 2.66667 5.16667 2.66667V5.16667L3.4 6.93333C4.375 7.90833 5.95833 7.90833 6.9375 6.93333C7.9125 5.95833 7.9125 4.375 6.93333 3.4ZM5.16667 1C2.86667 1 1 2.86667 1 5.16667C1 7.46667 2.86667 9.33333 5.16667 9.33333C7.46667 9.33333 9.33333 7.46667 9.33333 5.16667C9.33333 2.86667 7.46667 1 5.16667 1ZM5.16667 8.5C3.325 8.5 1.83333 7.00833 1.83333 5.16667C1.83333 3.325 3.325 1.83333 5.16667 1.83333C7.00833 1.83333 8.5 3.325 8.5 5.16667C8.5 7.00833 7.00833 8.5 5.16667 8.5Z" fill="#B3898B"/>
</g>
<defs>
<clipPath id="clip0_13_934">
<rect width="10" height="10" fill="white"/>
</clipPath>
</defs>
</svg>
