<svg
  width="20"
  height="20"
  viewBox="0 0 10 10"
  fill="none"
  xmlns="http://www.w3.org/2000/svg"
>
  <g id="History edu" clip-path="url(#clip0_13_940)">
    <g id="Group">
      <g id="Group_2">
        <path
          id="Vector"
          d="M4.15 2V2.575C3.80417 2.4375 3.43333 2.36667 3.0625 2.36667C2.31667 2.36667 1.57083 2.65 1 3.22083L2.3875 4.60833H2.85V5.07083C3.20833 5.42917 3.675 5.61667 4.14583 5.6375V6.58333H2.9V7.83333C2.9 8.29167 3.275 8.66667 3.73333 8.66667H7.9C8.59167 8.66667 9.15 8.10833 9.15 7.41667V2H4.15ZM3.6875 4.67083V3.775H2.7375L2.30417 3.34167C2.54167 3.25 2.8 3.2 3.0625 3.2C3.62083 3.2 4.14167 3.41667 4.5375 3.80833L5.125 4.39583L5.04167 4.47917C4.82917 4.69167 4.54583 4.8125 4.24167 4.8125C4.04583 4.8125 3.85417 4.7625 3.6875 4.67083ZM8.31667 7.41667C8.31667 7.64583 8.12917 7.83333 7.9 7.83333C7.67083 7.83333 7.48333 7.64583 7.48333 7.41667V6.58333H4.98333V5.50417C5.22083 5.40833 5.44167 5.26667 5.63333 5.075L5.71667 4.99167L6.89583 6.16667H7.48333V5.57917L4.98333 3.09167V2.83333H8.31667V7.41667Z"
          fill="#B3898B"
        />
      </g>
    </g>
  </g>
  <defs>
    <clipPath id="clip0_13_940">
      <rect width="10" height="10" fill="white" />
    </clipPath>
  </defs>
</svg>
